<svg xmlns="http://www.w3.org/2000/svg" xml:space="preserve" viewBox="0 0 256 256"><path d="M187.3 68.3c-1 0-2 .3-3 .8-6.8 2.4-28.9 10.3-44.2 18.8-15.5 8.6-19.9 17.1-19.9 17.1v27.9l-1.6 1.6c-.4.7-.9 1.3-1.5 1.9l-8.1 8.1c-.6.6-1.2 1.1-1.9 1.5l-37.6 37.5c-2.3 2.3-2.3 6.1 0 8.5 1.2 1.2 2.7 1.8 4.2 1.8s3.1-.6 4.2-1.8L191.5 78.6c2.3-2.3 2.3-6.1 0-8.5-1.1-1.2-2.7-1.8-4.2-1.8z"/><path d="m101.5 136.9 8.3-8.3v-27.5s.6-.9 1.7-2.5l-1 1L81.4 76l-2.9 2.9-2.9 2.9 24 29.6-3.9 3.9-28-25.6-4.9 4.9 30.8 35.9c0-.1 3.1 3.3 7.9 6.4zM121.9 86.9 94.2 63.2 89.3 68l24.8 27.2c2-2.4 4.6-5.3 7.8-8.3z"/><path d="M128 10C62.8 10 10 62.8 10 128s52.8 118 118 118 118-52.8 118-118S193.2 10 128 10zM85.6 199.3c-3.1 3.1-7.2 4.8-11.6 4.8-4.4 0-8.5-1.7-11.6-4.8-3.1-3.1-4.8-7.3-4.8-11.6s1.7-8.5 4.8-11.6L94 144.5c-4.7-3.3-7.7-6.5-8.1-6.9l-.2-.2-30.8-36c-3.6-4.1-3.3-10.3.5-14.2l4.9-4.9c1.4-1.4 3.2-2.4 5.1-2.8.4-1.9 1.3-3.6 2.8-5.1l2.9-2.9 2.9-2.9c1.4-1.4 3.2-2.4 5.1-2.8.4-1.9 1.3-3.7 2.8-5.1l4.9-4.9c2-2 4.7-3.1 7.4-3.1 2.4 0 4.8.8 6.8 2.5L128.7 79c.8.7 1.5 1.5 2 2.4 1.4-.9 2.8-1.7 4.4-2.6 15.2-8.4 36.1-16.1 45.1-19.3 2.2-1.1 4.6-1.6 7.1-1.6 4.4 0 8.5 1.7 11.6 4.8 6.4 6.4 6.4 16.8 0 23.3L85.6 199.3zm112.1-1.2c-3.9 3.9-9.1 6-14.5 6s-10.7-2.1-14.5-6l-.4-.4-30.4-34c-1.9-2.1-1.7-5.4.4-7.4 2.1-1.9 5.5-1.7 7.4.4l30.4 34c2 2 4.6 3 7.2 3 2.6 0 5.2-1 7.2-3 3.9-3.9 3.9-10.4 0-14.3l-34-30.4c-2.1-1.9-2.3-5.2-.4-7.4 1.9-2.1 5.2-2.3 7.4-.4l34 30.4.4.4c7.9 8 7.9 21.1-.2 29.1z"/></svg>